<svg width="191" height="185" fill="none" xmlns="http://www.w3.org/2000/svg"><path d="m189.214 61.7-27.9-57.095A8 8 0 0 0 151.82.457L80.454 21.946a8 8 0 0 0-3.715 2.393L61.88 41.323a8 8 0 0 1-8.966 2.17L11.102 26.942C5.85 24.863.157 28.732.157 34.38v66.537c0 1.169.257 2.325.752 3.384l13.47 28.85a8.005 8.005 0 0 0 3.216 3.524l27.835 16.249 40.194 30.386a8 8 0 0 0 8.823.547l40.651-23.458a8.004 8.004 0 0 0 3.087-3.214l20.144-38.418 30.503-49.349a7.998 7.998 0 0 0 .382-7.718Z" fill="#EF3124" fill-opacity=".5"/></svg>