<svg width="18" height="18" viewBox="0 0 18 18" fill="none" xmlns="http://www.w3.org/2000/svg">
<path fill-rule="evenodd" clip-rule="evenodd" d="M7.90801 2.25C7.01642 2.25027 6.13752 2.46124 5.34295 2.86571C4.54839 3.27017 3.86066 3.85669 3.33583 4.57745C2.811 5.2982 2.46393 6.13278 2.32292 7.01314C2.18191 7.89351 2.25095 8.79474 2.5244 9.64335C2.79786 10.492 3.268 11.2639 3.89648 11.8964C4.52496 12.5288 5.29401 13.0037 6.1409 13.2824C6.9878 13.5611 7.88858 13.6358 8.76981 13.5002C9.65103 13.3647 10.4878 13.0228 11.2118 12.5025L15.21 16.5L16.5 15.21L12.5025 11.2125C13.1107 10.3672 13.4738 9.37039 13.5519 8.33193C13.6299 7.29347 13.4198 6.25361 12.9447 5.3269C12.4697 4.40018 11.748 3.62255 10.8594 3.07966C9.97068 2.53677 8.9494 2.24968 7.90801 2.25ZM4.07551 7.908C4.07551 6.89146 4.47933 5.91655 5.19813 5.19775C5.91694 4.47895 6.89184 4.07513 7.90838 4.07513C8.92492 4.07513 9.89983 4.47895 10.6186 5.19775C11.3374 5.91655 11.7413 6.89146 11.7413 7.908C11.7413 8.92454 11.3374 9.89945 10.6186 10.6183C9.89983 11.3371 8.92492 11.7409 7.90838 11.7409C6.89184 11.7409 5.91694 11.3371 5.19813 10.6183C4.47933 9.89945 4.07551 8.92454 4.07551 7.908Z" fill="#0E0E0E" fill-opacity="0.58"/>
</svg>
