<svg width="18" height="18" viewBox="0 0 18 18" fill="none" xmlns="http://www.w3.org/2000/svg">
<path fill-rule="evenodd" clip-rule="evenodd" d="M7.90776 2.25C7.01618 2.25027 6.13727 2.46124 5.34271 2.86571C4.54815 3.27017 3.86041 3.85669 3.33559 4.57745C2.81076 5.2982 2.46369 6.13278 2.32268 7.01314C2.18167 7.89351 2.2507 8.79474 2.52416 9.64335C2.79762 10.492 3.26775 11.2639 3.89624 11.8964C4.52472 12.5288 5.29376 13.0037 6.14066 13.2824C6.98756 13.5611 7.88834 13.6358 8.76957 13.5002C9.65079 13.3647 10.4875 13.0228 11.2115 12.5025L15.2098 16.5L16.4998 15.21L12.5023 11.2125C13.1105 10.3672 13.4736 9.37039 13.5516 8.33193C13.6296 7.29347 13.4196 6.25361 12.9445 5.3269C12.4694 4.40018 11.7478 3.62255 10.8591 3.07966C9.97043 2.53677 8.94915 2.24968 7.90776 2.25ZM4.07526 7.908C4.07526 6.89146 4.47908 5.91655 5.19789 5.19775C5.91669 4.47895 6.8916 4.07513 7.90814 4.07513C8.92468 4.07513 9.89959 4.47895 10.6184 5.19775C11.3372 5.91655 11.741 6.89146 11.741 7.908C11.741 8.92454 11.3372 9.89945 10.6184 10.6183C9.89959 11.3371 8.92468 11.7409 7.90814 11.7409C6.8916 11.7409 5.91669 11.3371 5.19789 10.6183C4.47908 9.89945 4.07526 8.92454 4.07526 7.908Z" fill="#0E0E0E"/>
</svg>
