<svg width="36" height="36" fill="none" xmlns="http://www.w3.org/2000/svg"><g clip-path="url(#a)"><rect width="36" height="36" rx="12" fill="#F3F4F6"/><path d="M18 9a9 9 0 1 0 0 18 9 9 0 0 0 0-18Zm2.862 13.637a.635.635 0 0 1-.902.317l-2.443-1.899-1.569 1.447a.27.27 0 0 1-.256.035l.3-2.69.01.008.006-.053s4.397-4.003 4.576-4.173c.181-.17.121-.207.121-.207.01-.208-.325 0-.325 0l-5.825 3.747-2.426-.826s-.373-.134-.408-.428c-.037-.291.42-.45.42-.45l9.645-3.831s.793-.354.793.231l-1.717 8.772Z" fill="#BBBBC3"/></g><defs><clipPath id="a"><path fill="#fff" d="M0 0h36v36H0z"/></clipPath></defs></svg>