<svg width="18" height="18" fill="none" xmlns="http://www.w3.org/2000/svg"><path d="M8.807 14.454h1.075s.325-.039.49-.23c.154-.176.148-.507.148-.507s-.021-1.546.65-1.773c.66-.225 1.508 1.494 2.407 2.155.68.5 1.196.39 1.196.39l2.404-.035s1.258-.084.661-1.143c-.048-.086-.347-.783-1.787-2.214-1.508-1.5-1.305-1.256.51-3.848 1.106-1.579 1.548-2.543 1.41-2.955-.132-.393-.945-.289-.945-.289l-2.704.017s-.2-.03-.35.066c-.146.094-.239.311-.239.311s-.428 1.222-1 2.26c-1.205 2.193-1.688 2.308-1.884 2.172-.458-.317-.344-1.275-.344-1.954 0-2.125.3-3.01-.586-3.24-.294-.075-.51-.126-1.263-.134-.965-.011-1.783.003-2.246.245-.308.162-.545.522-.4.543.179.025.584.116.799.43.278.403.268 1.312.268 1.312s.16 2.5-.373 2.811c-.365.214-.866-.221-1.94-2.21-.55-1.02-.967-2.146-.967-2.146s-.08-.21-.223-.322a1.077 1.077 0 0 0-.416-.18l-2.572.018s-.385.012-.527.191c-.126.16-.01.49-.01.49s2.013 5.046 4.293 7.59c2.091 2.332 4.465 2.179 4.465 2.179Z" fill="#BBBBC3"/></svg>