<svg xmlns="http://www.w3.org/2000/svg" width="36" height="36" fill="none"><g clip-path="url(#a)"><rect width="36" height="36" fill="#F3F4F6" rx="12"/><path fill="#BBBBC3" d="M27.818 14.6c-.182-1.5-.364-2.6-.909-3-.545-.5-5.273-.6-8.909-.6-3.636 0-8.364.1-8.91.6-.545.4-.726 1.5-.908 3C8 16.1 8 17 8 18s0 1.9.182 3.4.363 2.6.909 3c.545.5 5.273.6 8.909.6 3.636 0 8.364-.1 8.91-.6.544-.4.726-1.5.908-3C28 19.9 28 19 28 18s0-1.9-.182-3.4Zm-11.636 7v-7.2l5.454 3.6-5.454 3.6Z"/></g><defs><clipPath id="a"><path fill="#fff" d="M0 0h36v36H0z"/></clipPath></defs></svg>